<svg id="Layer_1" data-name="Layer 1" xmlns="http://www.w3.org/2000/svg" viewBox="0 0 32 32"><title>Artboard 1</title><polygon points="23.414 0 4 0 4 10.653 1 11.153 1 26.846 4 27.347 4 32 30 32 30 6.586 23.414 0" style="fill:#fff"/><path d="M18,5v6h6A6,6,0,0,0,18,5Z" style="fill:#f5ba9d"/><path d="M23,2.414,27.586,7H23ZM5,26.5V31H29V7L23,1H5V11.5l1-.167V2H22V8h6V30H6V26.666Z" style="fill:#231f20;opacity:0.4"/><g id="_48-2" data-name=" 48-2"><polygon points="14 10 14 28 2 25.999 2 12 14 10" style="fill:#d04727"/></g><path d="M17,12V6a5.994,5.994,0,0,0-5.394,3.385l2.229-.372L15,8.82v8.832A5.987,5.987,0,0,0,23,12Z" style="fill:#949494"/><path d="M8.666,15H6v8H7.529V20.233H8.666A2.348,2.348,0,0,0,11,17.872v-.51A2.348,2.348,0,0,0,8.666,15Zm.645,2.737A1.113,1.113,0,0,1,8.2,18.857H7.529V16.376H8.2A1.113,1.113,0,0,1,9.311,17.5Z" style="fill:#fff"/><rect x="16" y="26" width="9" height="1" style="fill:#f5ba9d"/><rect x="16" y="23" width="9" height="1" style="fill:#f5ba9d"/><rect x="16" y="20" width="9" height="1" style="fill:#f5ba9d"/></svg>