<svg id="Layer_1" data-name="Layer 1" xmlns="http://www.w3.org/2000/svg" viewBox="0 0 32 32"><title>compound-email</title><path d="M1.805,26.7V5.716a2.009,2.009,0,0,1,2-2.013h7.9a2.133,2.133,0,0,1,1.319.472l3.668,3.239a1.013,1.013,0,0,0,.616.289h10.5a2,2,0,0,1,2,2v17Z" fill="#b36601"/><path d="M11.7,4.2a1.635,1.635,0,0,1,1.009.364l3.648,3.222a1.528,1.528,0,0,0,.946.414h10.5a1.5,1.5,0,0,1,1.5,1.5V26.2h-27V5.716A1.511,1.511,0,0,1,3.805,4.2h7.9m0-1h-7.9a2.509,2.509,0,0,0-2.5,2.513V27.2h29V9.7a2.5,2.5,0,0,0-2.5-2.5h-10.5c-.027,0-.1-.024-.3-.183l-3.626-3.2-.02-.018-.022-.016A2.643,2.643,0,0,0,11.7,3.2Z" fill="#fff"/><path d="M3.305,25.2h25v-14a1,1,0,0,0-1-1h-23a1,1,0,0,0-1,1Z" fill="#e3992e"/><polygon points="3.305 25.203 28.305 25.203 28.305 12.203 3.305 25.203" fill="#dd8100"/><path d="M13.729,29.73h18V18.064a.84.84,0,0,0-.833-.834H14.563a.841.841,0,0,0-.834.834Z" fill="#fff"/><path d="M15.787,18.606,22.7,24.335l7.022-5.705a.98.98,0,0,0-.423-.1H16.157A1,1,0,0,0,15.787,18.606Z" fill="#444"/><path d="M30.281,19.292l-7.306,5.937a.424.424,0,0,1-.272.1.429.429,0,0,1-.275-.1L15.2,19.237a.994.994,0,0,0-.054.313v7.86a1,1,0,0,0,.062.339l4.03-3.935a.432.432,0,1,1,.6.619l-4.025,3.93a1.016,1.016,0,0,0,.346.063H29.3a1.037,1.037,0,0,0,.386-.076L25.644,24.4a.432.432,0,0,1,.6-.619l4.022,3.926a1,1,0,0,0,.049-.3V19.55A1.037,1.037,0,0,0,30.281,19.292Z" fill="#444"/></svg>