<svg id="Layer_1" data-name="Layer 1" xmlns="http://www.w3.org/2000/svg" width="21.454" height="24" viewBox="0 0 21.454 24"><title>archive_link</title><path d="M16.483,1.32s-7.636-.262-9.019-.262S5.488,2.414,5.339,3.2s-.016,15.248-.016,15.248l1.526,1.194,12.05-.071L20.158,18.1l.075-13.373Z" fill="#fff"/><path d="M17.4,20.234V7.818L12.99,3.405H4.407l.013-.373A2.926,2.926,0,0,1,7.365.361h9.526l4.2,4.2V17.479a2.936,2.936,0,0,1-2.954,2.755Z" fill="#763882"/><path d="M16.742.721l3.99,3.99V17.479a2.577,2.577,0,0,1-2.594,2.394h-.375V7.669l-.317-.317-3.99-3.99-.317-.317H4.78A2.582,2.582,0,0,1,7.365.721h9.377m.3-.721H7.365A3.294,3.294,0,0,0,4.06,3.019l-.026.747h8.807l.106.106,3.99,3.99.106.106V20.595h1.1a3.305,3.305,0,0,0,3.315-3.115V4.413L21.242,4.2,17.252.211,17.041,0Z" fill="#fff"/><polygon points="16.741 0.798 16.741 4.711 20.654 4.711 16.741 0.798" fill="#5d2465"/><path d="M12.432,4.725S4.8,4.463,3.413,4.463,1.437,5.819,1.288,6.6s-.015,15.249-.015,15.249L2.8,23.047l12.05-.071L16.108,21.5l.075-13.373Z" fill="#fff"/><path d="M3.315,23.639A2.935,2.935,0,0,1,.361,20.884V6.521A2.935,2.935,0,0,1,3.315,3.766h9.526l4.2,4.2V20.884a2.936,2.936,0,0,1-2.954,2.755Z" fill="#3374b9"/><path d="M12.691,4.127l3.99,3.99V20.885a2.577,2.577,0,0,1-2.594,2.394H3.315A2.575,2.575,0,0,1,.721,20.885V6.521A2.576,2.576,0,0,1,3.315,4.127Zm.3-.721H3.315A3.3,3.3,0,0,0,0,6.521V20.885A3.3,3.3,0,0,0,3.315,24H14.087A3.306,3.306,0,0,0,17.4,20.885V7.818l-.211-.211L13.2,3.617l-.211-.211Z" fill="#fff"/><polygon points="12.691 4.204 12.691 8.117 16.604 8.117 12.691 4.204" fill="#1d52a3"/><path d="M13.975,14.527a5.784,5.784,0,0,1-.569.611c-.644.634-1.3,1.261-1.916,1.919a2.735,2.735,0,0,1-3.767.2.526.526,0,0,1-.064-.846,2.988,2.988,0,0,1,.239-.236.454.454,0,0,1,.664.007,1.37,1.37,0,0,0,1.976-.071q1.079-1.076,2.153-2.156a1.367,1.367,0,0,0,.324-1.561,1.369,1.369,0,0,0-2.225-.413c-.217.213-.43.43-.646.644-.049.048-.087.107-.181.068a3.909,3.909,0,0,0-1.513-.262c.91-.88,1.6-1.95,2.912-2.2a2.23,2.23,0,0,1,.849.042,2.922,2.922,0,0,1,1.9,1.312A2.833,2.833,0,0,1,13.975,14.527Z" fill="#204896"/><path d="M4.234,16.627a5.2,5.2,0,0,1,.377-.433q1.1-1.1,2.2-2.2a2.706,2.706,0,0,1,3.8-.075.48.48,0,0,1,.04.7c-.074.084-.156.161-.237.238a.477.477,0,0,1-.74.037,1.379,1.379,0,0,0-2.011.134c-.684.684-1.37,1.366-2.051,2.053a1.37,1.37,0,1,0,1.878,1.994c.2-.188.388-.381.577-.576a.223.223,0,0,1,.256-.076,3.966,3.966,0,0,0,1.517.233c-.951.853-1.628,1.958-2.955,2.207a3.531,3.531,0,0,1-.9-.048,2.857,2.857,0,0,1-1.783-1.184A2.778,2.778,0,0,1,4.234,16.627Z" fill="#204896"/><path d="M13.254,13.806a5.784,5.784,0,0,1-.569.611c-.644.634-1.3,1.261-1.916,1.919a2.735,2.735,0,0,1-3.767.2.526.526,0,0,1-.064-.846,2.988,2.988,0,0,1,.239-.236.454.454,0,0,1,.664.007,1.37,1.37,0,0,0,1.976-.071q1.079-1.076,2.153-2.156a1.367,1.367,0,0,0,.324-1.561,1.369,1.369,0,0,0-2.225-.413c-.217.213-.43.43-.646.644-.049.048-.087.107-.181.068a3.909,3.909,0,0,0-1.513-.262c.91-.88,1.6-1.95,2.912-2.2a2.23,2.23,0,0,1,.849.042,2.922,2.922,0,0,1,1.9,1.312A2.833,2.833,0,0,1,13.254,13.806Z" fill="#fff"/><path d="M3.513,15.906a5.2,5.2,0,0,1,.377-.433q1.1-1.1,2.2-2.2a2.706,2.706,0,0,1,3.8-.075.48.48,0,0,1,.04.7c-.074.084-.156.161-.237.238a.477.477,0,0,1-.74.037,1.379,1.379,0,0,0-2.011.134c-.684.684-1.37,1.366-2.051,2.053a1.37,1.37,0,1,0,1.878,1.994c.2-.188.388-.381.577-.576A.223.223,0,0,1,7.6,17.7a3.966,3.966,0,0,0,1.517.233c-.951.853-1.628,1.958-2.955,2.207a3.531,3.531,0,0,1-.9-.048,2.857,2.857,0,0,1-1.783-1.184A2.778,2.778,0,0,1,3.513,15.906Z" fill="#fff"/></svg>