<svg id="Layer_1" data-name="Layer 1" xmlns="http://www.w3.org/2000/svg" viewBox="0 0 32 32"><title>Artboard 1</title><polygon points="23.414 0 4 0 4 10.653 1 11.153 1 26.846 4 27.347 4 32 30 32 30 6.586 23.414 0" style="fill:#fff"/><path d="M23,2.414,27.586,7H23ZM5,26.5V31H29V7L23,1H5V11.5l1-.167V2H22V8h6V30H6V26.666Z" style="fill:#231f20;opacity:0.4"/><g id="_48-2" data-name=" 48-2"><polygon points="14 10 14 28 2 25.999 2 12 14 10" style="fill:#2b579a"/></g><rect x="8" y="5" width="14" height="2" style="fill:#999"/><rect x="15" y="9" width="11" height="2" style="fill:#999"/><rect x="15" y="13" width="11" height="2" style="fill:#999"/><rect x="15" y="17" width="11" height="2" style="fill:#999"/><rect x="15" y="21" width="11" height="2" style="fill:#999"/><rect x="15" y="25" width="11" height="2" style="fill:#999"/><polyline points="12.217 15 10.867 15 9.903 20.207 9.903 20.207 8.881 15 7.396 15 6.182 20.139 6.182 20.139 5.275 15.058 3.8 15.058 5.343 22 6.885 22 8.042 17.054 8.042 17.054 9.132 22 10.617 22 12.217 15" style="fill:#fff"/></svg>