<svg id="Layer_1" data-name="Layer 1" xmlns="http://www.w3.org/2000/svg" viewBox="0 0 32 32"><title>Artboard 1</title><polygon points="23.414 0 4 0 4 10.653 1 11.153 1 26.846 4 27.347 4 32 30 32 30 6.586 23.414 0" style="fill:#fff"/><path d="M23,2.414,27.586,7H23ZM5,26.5V31H29V7L23,1H5V11.5l1-.167V2H22V8h6V30H6V26.666Z" style="fill:#231f20;opacity:0.4"/><rect x="14" y="4" width="5" height="3" style="fill:#231f20;opacity:0.4"/><rect x="20" y="4" width="2" height="3" style="fill:#231f20;opacity:0.4"/><rect x="8" y="4" width="5" height="3" style="fill:#231f20;opacity:0.4"/><rect x="20" y="8" width="5" height="3" style="fill:#86bfa0"/><rect x="20" y="12" width="5" height="3" style="fill:#86bfa0"/><rect x="20" y="16" width="5" height="3" style="fill:#86bfa0"/><rect x="20" y="20" width="5" height="3" style="fill:#86bfa0"/><rect x="20" y="24" width="5" height="3" style="fill:#86bfa0"/><polygon points="13 8 8 8 8 9.986 13 9.153 13 8" style="fill:#231f20;opacity:0.4"/><polygon points="15 10 15 11 19 11 19 8 14 8 14 8.986 15 8.82 15 10" style="fill:#86bfa0"/><rect x="15" y="12" width="4" height="3" style="fill:#86bfa0"/><rect x="15" y="16" width="4" height="3" style="fill:#86bfa0"/><rect x="15" y="20" width="4" height="3" style="fill:#86bfa0"/><rect x="15" y="24" width="4" height="3" style="fill:#86bfa0"/><g id="_48-2" data-name=" 48-2"><polygon points="14 10 14 28 2 25.999 2 12 14 10" style="fill:#207347"/></g><polyline points="10.927 15 9.325 15 8.068 17.865 7.995 17.865 6.948 15.066 5.136 15.066 7.021 19.033 5 23 6.675 23 7.995 20.069 7.995 20.069 9.251 23 11 23 8.979 18.967 10.927 15" style="fill:#fff"/></svg>