<svg id="Layer_1" data-name="Layer 1" xmlns="http://www.w3.org/2000/svg" viewBox="0 0 32 32"><title>Artboard 1</title><path d="M28,28V7L22,1H7A2.946,2.946,0,0,0,4,4V28a2.946,2.946,0,0,0,3,3H25A2.946,2.946,0,0,0,28,28Z" style="fill:#fff"/><rect width="32" height="32" style="fill:none"/><path d="M22,1H7A2.946,2.946,0,0,0,4,4V28a2.946,2.946,0,0,0,3,3H25a2.946,2.946,0,0,0,3-3V7Z" style="fill:#eee"/><path d="M22,1H7A2.946,2.946,0,0,0,4,4V28a2.946,2.946,0,0,0,3,3H25a2.946,2.946,0,0,0,3-3V7Zm5,27a2.006,2.006,0,0,1-2,2H7a2.006,2.006,0,0,1-2-2V4A2.006,2.006,0,0,1,7,2H22V7h5Z" style="fill:#627783"/><path d="M22,1l6,6V28a2.946,2.946,0,0,1-3,3H7a2.946,2.946,0,0,1-3-3V4A2.946,2.946,0,0,1,7,1H22m.4-1H7A4.012,4.012,0,0,0,3,4V28a4.012,4.012,0,0,0,4,4H25a4.012,4.012,0,0,0,4-4V6.6L22.7.3,22.4,0Z" style="fill:#fff"/></svg>