<svg id="Layer_1" data-name="Layer 1" xmlns="http://www.w3.org/2000/svg" viewBox="0 0 31.917 30.966"><defs><style>.cls-1{fill:#004267;}.cls-2{fill:#fff;}.cls-3{fill:#a7261b;}</style></defs><title>mime_mail_store_32</title><path class="cls-1" d="M16.006,16.038v-.076h-.012C16,15.989,16.006,16.015,16.006,16.038Z" transform="translate(-0.042 -0.517)"/><path class="cls-2" d="M31.958,5.125C31.958,2.581,24.814.517,16,.517S.042,2.581.042,5.125V26.956H.058c.147,2.5,7.218,4.527,15.942,4.527,8.7,0,15.761-2.013,15.941-4.51l.017-.017Z" transform="translate(-0.042 -0.517)"/><path class="cls-1" d="M16.006,16.038v-.076h-.012C16,15.989,16.006,16.015,16.006,16.038Z" transform="translate(-0.042 -0.517)"/><circle class="cls-3" cx="15.958" cy="15.483" r="9.928"/><path class="cls-3" d="M16,1.237C7.6,1.237.783,3.205.783,5.63c0,1.505,2.633,2.833,6.642,3.623a10.889,10.889,0,0,1,17.15,0c4.009-.79,6.642-2.118,6.642-3.623C31.217,3.205,24.4,1.237,16,1.237Z" transform="translate(-0.042 -0.517)"/><path class="cls-3" d="M6.572,10.508C3.051,9.7.785,8.462.785,7.065c0-.026.014-.052.014-.075H.783v5.677H.8c.068,1.159,1.7,2.206,4.294,2.981A10.838,10.838,0,0,1,6.572,10.508Z" transform="translate(-0.042 -0.517)"/><path class="cls-3" d="M25.428,10.508a10.838,10.838,0,0,1,1.479,5.14c2.6-.775,4.228-1.822,4.3-2.98h.012v-5.6C31.211,8.465,28.946,9.705,25.428,10.508Z" transform="translate(-0.042 -0.517)"/><path class="cls-3" d="M5.131,17.1C2.446,16.309.785,15.226.785,14.028c0-.025.014-.048.014-.071H.783v5.677H.8c.09,1.528,2.888,2.864,7.065,3.631A10.87,10.87,0,0,1,5.131,17.1Z" transform="translate(-0.042 -0.517)"/><path class="cls-3" d="M26.869,17.1a10.883,10.883,0,0,1-2.733,6.163c4.177-.767,6.977-2.1,7.068-3.63h.012v-5.6C31.211,15.23,29.551,16.311,26.869,17.1Z" transform="translate(-0.042 -0.517)"/><path class="cls-3" d="M22.416,24.823a10.842,10.842,0,0,1-12.833,0c-5.191-.7-8.8-2.216-8.8-3.977,0-.025.014-.052.014-.077H.783v5.678H.8C.94,28.835,7.682,30.763,16,30.763s15.061-1.928,15.2-4.316h.012v-5.6C31.209,22.609,27.6,24.124,22.416,24.823Z" transform="translate(-0.042 -0.517)"/><path class="cls-2" d="M10.472,11.572l5.5,5.146,5.5-5.2c-.234-.176-.351-.351-.7-.351H11.232C10.881,11.221,10.764,11.4,10.472,11.572Z" transform="translate(-0.042 -0.517)"/><path class="cls-2" d="M15.969,17.841a.229.229,0,0,1-.187-.062L9.54,12.1A1.629,1.629,0,0,0,9.1,13.16v5.992a1.865,1.865,0,0,0,1.81,1.872H21.087a1.853,1.853,0,0,0,1.81-1.81V13.223A1.794,1.794,0,0,0,22.46,12.1l-6.242,5.68A.472.472,0,0,1,15.969,17.841Z" transform="translate(-0.042 -0.517)"/></svg>