<svg id="Layer_1" data-name="Layer 1" xmlns="http://www.w3.org/2000/svg" viewBox="0 0 32 32"><title>Artboard 1</title><polygon points="23.414 0 4 0 4 10.653 1 11.153 1 26.846 4 27.347 4 32 30 32 30 6.586 23.414 0" style="fill:#fff"/><path d="M23,2.414,27.586,7H23ZM5,26.5V31H29V7L23,1H5V11.5l1-.167V2H22V8h6V30H6V26.666Z" style="fill:#231f20;opacity:0.4"/><g id="_48-2" data-name=" 48-2"><polygon points="14 10 14 28 2 25.999 2 12 14 10" style="fill:#3a56a0"/></g><polyline points="10.53 15 9.07 15 7.67 20.332 7.67 20.332 6.2 15.058 4.73 15.058 6.8 22 8.4 22 10.53 15" style="fill:#fff"/><rect x="8" y="3" width="2" height="2" style="fill:#acbbe3"/><rect x="12" y="3" width="2" height="2" style="fill:#acbbe3"/><rect x="12" y="7" width="2" height="2" style="fill:#acbbe3"/><rect x="25" y="9" width="2" height="2" style="fill:#acbbe3"/><rect x="25" y="13" width="2" height="2" style="fill:#acbbe3"/><rect x="25" y="17" width="2" height="2" style="fill:#acbbe3"/><rect x="19" y="25" width="2" height="2" style="fill:#acbbe3"/><rect x="15" y="25" width="2" height="2" style="fill:#acbbe3"/><rect x="16" y="3" width="2" height="2" style="fill:#acbbe3"/><rect x="20" y="3" width="2" height="2" style="fill:#acbbe3"/><rect x="17" y="18" width="7" height="1" style="fill:#999"/><rect x="23" y="18" width="1" height="4" style="fill:#999"/><rect x="20" y="14" width="1" height="5" style="fill:#999"/><path d="M17,17v4.01H15V22h3V16H15v1Z" style="fill:#999"/><path d="M20.5,9.414,22.586,11.5,20.5,13.586,18.414,11.5,20.5,9.414M20.5,8,17,11.5,20.5,15,24,11.5,20.5,8Z" style="fill:#999"/><path d="M23.5,22A1.5,1.5,0,1,1,22,23.5,1.5,1.5,0,0,1,23.5,22m0-1A2.5,2.5,0,1,0,26,23.5,2.5,2.5,0,0,0,23.5,21Z" style="fill:#999"/><rect x="15" y="11" width="3" height="1" style="fill:#999"/></svg>