<svg id="Layer_1" data-name="Layer 1" xmlns="http://www.w3.org/2000/svg" viewBox="0 0 32 32"><defs><style>.cls-1{fill:#0084ce;}.cls-2{fill:#fff;}.cls-3,.cls-4{fill:#00639b;}.cls-3{fill-rule:evenodd;}</style></defs><title>mime_job32</title><path class="cls-1" d="M7,31.5A3.5,3.5,0,0,1,3.5,28V4A3.5,3.5,0,0,1,7,.5H22.21L28.5,6.79V28A3.5,3.5,0,0,1,25,31.5Z"/><path class="cls-2" d="M22,1l6,6V28a3,3,0,0,1-3,3H7a3,3,0,0,1-3-3V4A3,3,0,0,1,7,1H22m.41-1H7A4,4,0,0,0,3,4V28a4,4,0,0,0,4,4H25a4,4,0,0,0,4-4V6.59l-.29-.3-6-6L22.41,0Z"/><polygon class="cls-3" points="22 1 22 7 28 7 22 1"/><path class="cls-4" d="M22.5,12H19V10a1,1,0,0,0-1-1H14a1,1,0,0,0-1,1v2H9.5A1.5,1.5,0,0,0,8,13.5v9A1.5,1.5,0,0,0,9.5,24h13A1.5,1.5,0,0,0,24,22.5v-9A1.5,1.5,0,0,0,22.5,12ZM14,10h4v2H14Z"/><path class="cls-2" d="M22.5,11H19V9a1,1,0,0,0-1-1H14a1,1,0,0,0-1,1v2H9.5A1.5,1.5,0,0,0,8,12.5v9A1.5,1.5,0,0,0,9.5,23h13A1.5,1.5,0,0,0,24,21.5v-9A1.5,1.5,0,0,0,22.5,11ZM14,9h4v2H14Z"/></svg>