<svg xmlns="http://www.w3.org/2000/svg" viewBox="0 0 32 32"><title>mime_3d_object32</title><path d="M7,31.466a3.5,3.5,0,0,1-3.5-3.5v-24A3.5,3.5,0,0,1,7,.466H22.207L28.5,6.759V27.966a3.5,3.5,0,0,1-3.5,3.5Z" fill="#2e3d98"/><path d="M22,.966l6,6v21a3,3,0,0,1-3,3H7a3,3,0,0,1-3-3v-24a3,3,0,0,1,3-3H22m.414-1H7a4,4,0,0,0-4,4v24a4,4,0,0,0,4,4H25a4,4,0,0,0,4-4V6.552l-.293-.293-6-6-.293-.293Z" fill="#fff"/><polygon points="22 0.966 22 6.966 28 6.966 22 0.966" fill="#232e72"/><path d="M23,12.319,16.508,8.551a1.026,1.026,0,0,0-1.015,0L9,12.319a1.019,1.019,0,0,0-.5.878v7.537a1.019,1.019,0,0,0,.505.879l6.487,3.768a1.012,1.012,0,0,0,1.015,0L23,21.613a1.02,1.02,0,0,0,.5-.879V13.2A1.018,1.018,0,0,0,23,12.319Z" fill="#232e72"/><path d="M23.211,11.441l-6.92-4.019A.574.574,0,0,0,16,7.346a.583.583,0,0,0-.29.075l-6.92,4.02a.585.585,0,0,0-.29.5v8.039a.585.585,0,0,0,.289.5l6.918,4.019a.586.586,0,0,0,.293.079.578.578,0,0,0,.29-.078l6.92-4.019a.586.586,0,0,0,.29-.506V11.946A.586.586,0,0,0,23.211,11.441Zm.218,8.544a.511.511,0,0,1-.255.443l-2,1.161-4.921,2.859a.5.5,0,0,1-.508,0l-6.92-4.02a.511.511,0,0,1-.255-.443V11.946a.512.512,0,0,1,.255-.443l6.92-4.02a.507.507,0,0,1,.508,0l6.92,4.02a.512.512,0,0,1,.255.443Z" fill="#fff"/><path d="M9.143,12.36v7.592l6.536,3.8v-7.6a.656.656,0,0,1-.077-.032Z" fill="none"/><path d="M16.25,16.173v7.616l6.607-3.837V12.36L16.4,16.112A.7.7,0,0,1,16.25,16.173Z" fill="none"/><path d="M23.174,11.5l-6.92-4.02a.507.507,0,0,0-.508,0L8.826,11.5a.512.512,0,0,0-.255.443v8.039a.511.511,0,0,0,.255.443l6.92,4.02a.5.5,0,0,0,.508,0l4.921-2.859,2-1.161a.511.511,0,0,0,.255-.443V11.946A.512.512,0,0,0,23.174,11.5ZM15.679,23.748l-6.536-3.8V12.36L15.6,16.111a.656.656,0,0,0,.077.032Zm7.178-3.8L16.25,23.789V16.173a.7.7,0,0,0,.147-.061l6.46-3.752Z" fill="#fff"/><path d="M15.89,15.617,9.384,11.839,16,8l6.616,3.842L16.11,15.618A.221.221,0,0,1,15.89,15.617Z" fill="#2e3d98"/><polygon points="22.857 12.36 22.857 19.952 16.25 23.789 16.25 16.173 22.857 12.36" fill="#2e3d98"/><path d="M9.143,12.36v7.592l6.536,3.8v-7.6C15.653,16.132,9.143,12.36,9.143,12.36Z" fill="#2e3d98"/><polygon points="22.857 12.36 22.857 19.952 16.25 23.789 16.25 16.173 22.857 12.36" fill="#fff" opacity="0.2"/><path d="M9.143,12.36v7.592l6.536,3.8v-7.6C15.653,16.132,9.143,12.36,9.143,12.36Z" fill="#fff" opacity="0.2"/></svg>